<?xml version="1.0" encoding="utf-8"?>
<!-- Generator: Adobe Illustrator 23.0.2, SVG Export Plug-In . SVG Version: 6.00 Build 0)  -->
<svg version="1.1" id="Layer_1" xmlns="http://www.w3.org/2000/svg" xmlns:xlink="http://www.w3.org/1999/xlink" x="0px" y="0px"
	 viewBox="0 0 100 100" style="enable-background:new 0 0 100 100;" xml:space="preserve">
<style type="text/css">
	.st0{fill:#010002;}
</style>
<g>
	<path class="st0" d="M93.9,54.4L54.2,29.5v-1.9c0-1.1,0.6-2,1.8-2.8c0.2-0.1,0.3-0.2,0.5-0.3c1.9-1.2,5.9-3.6,5.9-9.2
		c0-5.8-4.7-10.2-9.3-11.1c-4.8-1-9.2,0.2-12.1,3.3c-2.6,2.8-3.3,5.2-3.5,9.1c0,0.3,0,0.9,0,1.5c0,0.8,1.6,1.5,3.6,1.5h0.7
		c2,0,3.6-0.7,3.6-1.5c0-0.7,0-1.3,0-1.5c0.1-2.7,0.8-4.2,3.5-4.8c1.7-0.3,3.5,0.1,4.6,1.2c0.5,0.5,0.7,1.3,0.7,2.1
		c0,0.6-0.3,1.6-1.3,2.3l-3.4,2.3c-2.2,1.4-3.1,3.1-3.1,5.6v4.2L7.1,54.3C1.2,57.9,2.5,64,3,65.8c0.5,1.6,2.6,7,10.3,7h75
		c5.5,0,8.9-3.5,9.9-7.1C99.2,62,98,56.8,93.9,54.4z M89.9,63c-0.2,0.7-0.8,1.4-1.8,1.4c0,0,0,0,0,0H13.2c-1,0-1.6-0.7-1.8-1.3
		c-0.2-0.7,0.1-1.5,0.8-2l38.4-24l38.6,24.1C90.1,61.8,90,62.7,89.9,63z"/>
</g>
<g>
	<g>
		<path d="M18.1,76.2c0.4,0.2,0.6,0.5,0.7,0.9s0,0.8-0.3,1.2c-0.2,0.3-0.5,0.4-0.8,0.5c-0.3,0-0.6,0-1-0.2c-0.4-0.2-0.8-0.3-1.2-0.4
			c-0.4-0.1-0.8-0.1-1.3-0.1c-0.8,0-1.6,0.1-2.2,0.4c-0.7,0.3-1.2,0.6-1.7,1.1s-0.8,1.1-1,1.7C9.1,81.9,9,82.7,9,83.5
			c0,0.9,0.1,1.8,0.4,2.4s0.6,1.3,1.1,1.7c0.5,0.5,1,0.8,1.7,1c0.6,0.2,1.3,0.3,2.1,0.3c0.4,0,0.8,0,1.2-0.1
			c0.4-0.1,0.8-0.2,1.2-0.4c0.3-0.2,0.6-0.2,1-0.2c0.3,0,0.6,0.2,0.8,0.5c0.3,0.4,0.4,0.8,0.3,1.2s-0.3,0.7-0.7,0.9
			c-0.4,0.2-0.8,0.4-1.2,0.5c-0.4,0.1-0.9,0.2-1.3,0.3c-0.4,0.1-0.9,0.1-1.3,0.1c-1.1,0-2.2-0.2-3.1-0.5s-1.9-0.9-2.7-1.6
			s-1.4-1.6-1.8-2.6C6.2,86,6,84.8,6,83.5c0-1.2,0.2-2.3,0.6-3.3c0.4-1,1-1.9,1.7-2.6c0.7-0.7,1.6-1.3,2.6-1.7s2.1-0.6,3.3-0.6
			c0.7,0,1.3,0.1,2,0.2C17,75.7,17.6,75.9,18.1,76.2z"/>
		<path d="M30.2,88.8c0.4,0,0.7,0.1,1,0.4c0.3,0.3,0.4,0.6,0.4,1c0,0.4-0.1,0.7-0.4,1c-0.3,0.3-0.6,0.4-1,0.4h-7.5
			c-0.4,0-0.7-0.1-1-0.4c-0.3-0.3-0.4-0.6-0.4-1V76.8c0-0.4,0.1-0.7,0.4-1s0.6-0.4,1.1-0.4c0.4,0,0.7,0.1,1,0.4
			c0.3,0.3,0.4,0.6,0.4,1v12.4l-0.5-0.4H30.2z"/>
		<path d="M49.1,83.5c0,1.2-0.2,2.2-0.6,3.2c-0.4,1-0.9,1.9-1.6,2.6c-0.7,0.8-1.5,1.4-2.5,1.8s-2,0.6-3.1,0.6
			c-1.1,0-2.2-0.2-3.1-0.6c-1-0.4-1.8-1-2.5-1.8s-1.2-1.6-1.6-2.6s-0.6-2.1-0.6-3.2s0.2-2.2,0.6-3.2c0.4-1,0.9-1.9,1.6-2.6
			s1.5-1.4,2.5-1.8c1-0.4,2-0.6,3.1-0.6c1.1,0,2.2,0.2,3.1,0.6c1,0.4,1.8,1,2.5,1.8c0.7,0.8,1.2,1.6,1.6,2.6
			C48.9,81.2,49.1,82.3,49.1,83.5z M46.1,83.5c0-1-0.2-2-0.6-2.8c-0.4-0.8-1-1.5-1.7-2c-0.7-0.5-1.6-0.7-2.5-0.7
			c-1,0-1.8,0.2-2.5,0.7c-0.7,0.5-1.3,1.2-1.7,2c-0.4,0.8-0.6,1.8-0.6,2.8c0,1,0.2,2,0.6,2.8c0.4,0.8,1,1.5,1.7,2s1.6,0.7,2.5,0.7
			c1,0,1.8-0.2,2.5-0.7s1.3-1.2,1.7-2C45.9,85.4,46.1,84.5,46.1,83.5z"/>
		<path d="M56.9,91.8c-1.1,0-2-0.1-2.9-0.4c-0.9-0.3-1.7-0.7-2.5-1.4c-0.2-0.2-0.4-0.4-0.5-0.6c-0.1-0.2-0.2-0.4-0.2-0.6
			c0-0.4,0.1-0.7,0.4-0.9c0.3-0.3,0.6-0.4,1-0.4c0.3,0,0.6,0.1,0.8,0.3c0.6,0.5,1.2,0.8,1.7,1.1s1.3,0.4,2.1,0.4
			c0.6,0,1.1-0.1,1.6-0.3c0.5-0.2,0.9-0.4,1.2-0.7c0.3-0.3,0.4-0.6,0.4-1c0-0.5-0.1-0.9-0.4-1.2s-0.7-0.6-1.3-0.8
			c-0.6-0.2-1.3-0.4-2.2-0.5c-0.8-0.1-1.6-0.3-2.2-0.6c-0.6-0.3-1.2-0.6-1.6-1s-0.7-0.9-1-1.4c-0.2-0.5-0.3-1.1-0.3-1.8
			c0-1,0.3-1.9,0.8-2.6s1.2-1.2,2.1-1.6c0.9-0.4,1.8-0.6,2.9-0.6c1,0,1.9,0.1,2.8,0.4c0.9,0.3,1.5,0.7,2.1,1.1
			c0.4,0.4,0.7,0.8,0.7,1.2c0,0.3-0.1,0.6-0.4,0.9c-0.3,0.3-0.6,0.4-0.9,0.4c-0.2,0-0.4-0.1-0.6-0.2c-0.2-0.2-0.6-0.4-1-0.6
			c-0.4-0.2-0.9-0.4-1.3-0.5c-0.5-0.1-0.9-0.2-1.3-0.2c-0.7,0-1.2,0.1-1.7,0.3c-0.5,0.2-0.8,0.4-1,0.7c-0.2,0.3-0.3,0.6-0.3,1
			c0,0.5,0.1,0.8,0.4,1.1s0.7,0.5,1.2,0.7c0.5,0.2,1.1,0.3,1.8,0.5c0.9,0.2,1.7,0.4,2.4,0.6c0.7,0.2,1.3,0.5,1.7,0.9
			c0.5,0.4,0.8,0.8,1,1.4s0.3,1.2,0.3,2c0,1-0.3,1.9-0.8,2.6s-1.3,1.3-2.2,1.7C59,91.6,58,91.8,56.9,91.8z"/>
		<path d="M66.9,75.4h7.7c0.4,0,0.7,0.1,1,0.4c0.3,0.3,0.4,0.6,0.4,1c0,0.4-0.1,0.7-0.4,0.9s-0.6,0.4-1,0.4h-6.5l0.2-0.4v4.5
			L68.2,82h5.4c0.4,0,0.7,0.1,1,0.4c0.3,0.3,0.4,0.6,0.4,1c0,0.4-0.1,0.7-0.4,0.9s-0.6,0.4-1,0.4h-5.3l0.1-0.2v4.7l-0.2-0.2h6.4
			c0.4,0,0.7,0.1,1,0.4s0.4,0.6,0.4,0.9c0,0.4-0.1,0.7-0.4,0.9c-0.3,0.2-0.6,0.4-1,0.4h-7.7c-0.4,0-0.7-0.1-1-0.4
			c-0.3-0.3-0.4-0.6-0.4-1V76.8c0-0.4,0.1-0.7,0.4-1S66.5,75.4,66.9,75.4z"/>
		<path d="M81.6,90.1c0,0.4-0.1,0.7-0.4,1c-0.3,0.3-0.6,0.4-1,0.4c-0.4,0-0.8-0.1-1-0.4c-0.3-0.3-0.4-0.6-0.4-1V76.8
			c0-0.4,0.1-0.7,0.4-1s0.6-0.4,1.1-0.4c0.4,0,0.7,0.1,1,0.4c0.3,0.3,0.4,0.6,0.4,1V90.1z"/>
		<path d="M85.4,78c-0.4,0-0.7-0.1-1-0.4c-0.3-0.2-0.4-0.6-0.4-1c0-0.4,0.1-0.7,0.4-1c0.3-0.2,0.6-0.4,1-0.4h10.2
			c0.4,0,0.7,0.1,1,0.4s0.4,0.6,0.4,1s-0.1,0.7-0.4,1s-0.6,0.4-1,0.4H85.4z M90.5,91.5c-0.4,0-0.8-0.1-1.1-0.4
			c-0.3-0.3-0.4-0.6-0.4-1V76.7h3v13.4c0,0.4-0.1,0.7-0.4,1C91.3,91.4,91,91.5,90.5,91.5z"/>
	</g>
</g>
</svg>
